<?xml version="1.0" standalone="no"?>
<!DOCTYPE svg PUBLIC "-//W3C//DTD SVG 20010904//EN"
 "http://www.w3.org/TR/2001/REC-SVG-20010904/DTD/svg10.dtd">
<svg version="1.0" xmlns="http://www.w3.org/2000/svg"
 width="2560.000000pt" height="703.000000pt" viewBox="0 0 2560.000000 703.000000"
 preserveAspectRatio="xMidYMid meet">

<g transform="translate(0.000000,703.000000) scale(0.100000,-0.100000)"
fill="#000000" stroke="none">
<path d="M5096 6150 c-62 -19 -116 -95 -116 -162 0 -18 18 -83 39 -144 22 -61
47 -145 55 -187 20 -95 20 -255 1 -327 -8 -30 -13 -55 -12 -56 1 -1 27 4 57
13 75 20 245 20 345 -2 44 -9 125 -32 179 -51 55 -19 111 -34 126 -34 36 0
110 40 133 71 62 85 26 215 -73 257 -52 22 -274 28 -370 9 -41 -8 -77 -14 -79
-12 -1 2 30 20 70 41 109 54 203 117 229 154 27 38 36 106 18 140 -19 35 -76
70 -115 70 -74 0 -127 -51 -211 -202 -33 -59 -66 -123 -72 -143 -21 -63 -19
-33 3 45 28 102 30 354 4 415 -24 52 -44 74 -92 96 -43 20 -74 22 -119 9z"/>
<path d="M20045 6102 l-120 -3 -519 -1127 c-435 -943 -520 -1134 -520 -1172
l-1 -45 240 -3 c132 -2 263 0 292 3 l51 6 39 82 c21 45 50 107 63 138 25 56
25 57 75 63 28 3 234 6 458 6 l408 0 72 -150 71 -150 288 0 288 0 0 47 c0 42
-45 146 -347 798 -633 1368 -699 1509 -708 1510 -6 0 -64 -1 -130 -3z m160
-1282 c63 -144 115 -263 115 -265 0 -3 -117 -5 -260 -5 -150 0 -260 4 -260 9
0 5 50 126 111 268 61 142 117 274 126 293 l15 35 19 -37 c10 -21 71 -155 134
-298z"/>
<path d="M12015 4978 c-420 -912 -519 -1133 -523 -1175 l-4 -53 234 0 c129 0
262 3 295 6 l60 7 65 141 65 141 458 0 458 0 67 -145 68 -145 291 -3 292 -2
-3 50 c-2 42 -89 237 -523 1175 l-520 1125 -131 0 -130 0 -519 -1122z m780
-118 c69 -156 125 -289 125 -297 0 -10 -48 -13 -255 -13 -204 0 -255 3 -255
13 0 12 229 552 245 578 4 5 9 9 11 6 2 -2 60 -131 129 -287z"/>
<path d="M17405 6093 c-289 -37 -555 -167 -733 -357 -200 -215 -302 -491 -302
-821 0 -405 153 -730 445 -948 353 -263 877 -311 1282 -117 278 133 455 349
533 653 10 40 20 88 22 107 l3 35 -288 3 -287 2 -12 -27 c-60 -149 -131 -234
-242 -288 -231 -114 -480 -74 -656 104 -118 120 -176 253 -187 431 -25 418
233 707 612 687 214 -11 360 -103 443 -279 l27 -58 291 0 291 0 -8 48 c-81
440 -411 744 -889 817 -87 14 -271 18 -345 8z"/>
<path d="M23676 4978 c-456 -987 -519 -1129 -520 -1173 l-1 -50 289 0 289 0
68 145 69 145 427 3 c236 1 442 0 459 -3 28 -5 35 -16 96 -148 l66 -142 291
-3 291 -2 0 45 c0 39 -72 201 -496 1118 -273 589 -508 1098 -522 1130 l-25 57
-131 0 -132 0 -518 -1122z m783 -126 c71 -160 126 -294 123 -297 -11 -11 -512
-5 -512 6 0 10 220 531 242 572 5 10 12 17 14 14 3 -2 62 -135 133 -295z"/>
<path d="M15255 5815 c-192 -300 -224 -347 -234 -341 -3 2 -90 138 -191 300
l-185 296 -307 0 -308 0 0 -40 c0 -35 36 -93 336 -543 l335 -504 -364 -554
c-200 -305 -369 -564 -376 -577 -7 -13 -11 -40 -9 -60 l3 -37 302 -3 c280 -2
304 -1 320 16 10 9 113 174 228 365 124 204 215 346 223 344 8 -1 112 -164
232 -362 l218 -360 311 -3 311 -2 0 49 c0 47 -8 62 -207 362 -113 173 -281
428 -373 568 l-168 254 334 501 c308 462 334 504 334 543 l0 43 -247 0 c-137
0 -270 3 -298 6 l-50 6 -170 -267z"/>
<path d="M7720 5805 l0 -265 285 0 285 0 0 -895 0 -895 289 0 288 0 7 46 c3
26 6 429 6 895 l0 849 280 0 280 0 0 265 0 265 -860 0 -860 0 0 -265z"/>
<path d="M9870 4910 l0 -1160 720 0 720 0 0 270 0 270 -420 0 -420 0 0 890 0
890 -300 0 -300 0 0 -1160z"/>
<path d="M21600 4910 l0 -1160 720 0 720 0 0 270 0 270 -420 0 -420 0 0 890 0
890 -300 0 -300 0 0 -1160z"/>
<path d="M19312 2906 c-71 -23 -119 -63 -148 -123 -23 -45 -26 -62 -21 -109
11 -108 69 -160 232 -209 106 -33 121 -41 136 -76 21 -51 -27 -99 -99 -99 -56
0 -96 21 -112 60 -12 30 -13 30 -92 30 l-80 0 7 -37 c23 -123 118 -195 260
-197 101 -1 160 19 216 73 83 81 91 185 22 279 -29 38 -87 69 -203 107 -92 30
-130 56 -130 89 2 88 158 104 190 20 9 -23 14 -24 90 -24 l80 0 -7 33 c-14 76
-67 143 -136 172 -55 23 -153 28 -205 11z"/>
<path d="M21154 2910 c-248 -53 -374 -324 -259 -556 55 -113 151 -183 274
-203 168 -27 325 54 408 210 26 50 28 63 28 164 0 100 -3 116 -29 173 -71 154
-257 248 -422 212z m174 -174 c77 -40 123 -115 123 -205 1 -72 -24 -125 -82
-174 -169 -145 -412 28 -347 247 15 50 92 131 139 145 44 13 129 7 167 -13z"/>
<path d="M9082 2628 c3 -256 5 -287 22 -322 89 -179 351 -217 487 -69 68 74
69 79 69 393 l0 280 -80 0 -80 0 0 -260 c0 -287 -3 -306 -60 -335 -69 -36
-163 -3 -187 65 -8 23 -12 118 -12 283 l-1 247 -81 0 -80 0 3 -282z"/>
<path d="M10070 2535 l0 -375 80 0 80 0 0 203 c0 111 4 207 8 214 4 7 56 -73
130 -202 l123 -213 70 -4 c39 -2 73 -1 75 1 2 2 4 172 4 378 l0 373 -80 0 -80
0 -2 -222 -3 -223 -126 220 -126 220 -77 3 -76 3 0 -376z"/>
<path d="M11235 2898 c-3 -7 -65 -175 -138 -373 l-134 -360 81 -5 c49 -3 84
-1 88 5 4 5 20 45 35 88 l28 77 131 0 131 0 32 -85 33 -85 85 0 c77 0 84 2 78
18 -4 9 -61 163 -127 342 -66 179 -126 340 -133 358 l-14 32 -86 0 c-59 0 -87
-4 -90 -12z m130 -291 c19 -62 35 -119 35 -125 0 -8 -24 -12 -76 -12 -72 0
-75 1 -69 21 9 29 65 223 65 226 0 2 2 3 5 3 2 0 20 -51 40 -113z"/>
<path d="M12490 2535 l0 -375 80 0 80 0 2 217 3 217 125 -217 124 -217 73 0
73 0 0 375 0 375 -80 0 -80 0 -2 -220 -3 -220 -125 219 -125 220 -72 1 -73 0
0 -375z"/>
<path d="M13460 2647 c0 -292 6 -334 60 -399 17 -21 59 -51 95 -69 54 -26 75
-31 138 -31 96 0 162 28 221 93 68 75 70 88 67 437 l-1 232 -80 0 -80 0 0
-261 c0 -286 -2 -298 -60 -333 -41 -23 -111 -21 -145 6 -51 40 -55 65 -55 338
l0 250 -80 0 -80 0 0 -263z"/>
<path d="M14450 2535 l0 -375 245 0 245 0 0 70 0 70 -165 0 -166 0 3 78 3 77
138 3 137 3 0 69 0 70 -140 0 -140 0 0 85 0 85 160 0 160 0 0 70 0 70 -240 0
-240 0 0 -375z"/>
<path d="M15250 2908 c0 -2 51 -169 114 -373 l113 -370 68 -3 c37 -2 72 1 76
5 6 6 229 725 229 739 0 2 -38 4 -83 4 l-84 0 -27 -102 c-57 -219 -99 -368
-105 -368 -4 0 -35 106 -70 235 l-64 235 -83 0 c-46 0 -84 -1 -84 -2z"/>
<path d="M16211 2547 c-74 -199 -136 -368 -139 -374 -3 -10 17 -13 81 -13 l84
0 32 85 33 85 131 0 132 0 30 -83 30 -82 83 -3 c45 -2 82 1 82 6 0 4 -57 161
-126 348 -69 186 -130 351 -136 367 -10 27 -11 27 -96 27 l-87 0 -134 -363z
m259 58 c18 -60 35 -116 38 -122 3 -10 -15 -13 -72 -13 -46 0 -76 4 -76 10 0
10 53 196 65 229 8 21 10 16 45 -104z"/>
<path d="M17590 2535 l0 -375 80 0 80 0 0 150 0 150 135 0 135 0 0 -150 0
-150 80 0 80 0 0 375 0 375 -80 0 -80 0 0 -155 0 -155 -135 0 -135 0 0 155 0
155 -80 0 -80 0 0 -375z"/>
<path d="M18600 2535 l0 -375 80 0 80 0 0 375 0 375 -80 0 -80 0 0 -375z"/>
<path d="M19982 2838 l3 -73 103 -3 102 -3 0 -299 0 -300 80 0 80 0 0 300 0
300 100 0 100 0 0 75 0 75 -285 0 -286 0 3 -72z"/>
<path d="M21990 2536 l0 -376 80 0 80 0 0 131 c0 116 2 130 17 127 9 -2 53
-60 97 -130 l81 -127 98 -1 c76 0 96 3 91 13 -9 14 -92 132 -141 199 l-34 47
48 21 c62 27 80 44 111 105 19 38 25 65 25 115 0 102 -44 179 -127 223 -37 20
-58 22 -233 25 l-193 4 0 -376z m354 205 c32 -30 41 -71 26 -116 -18 -53 -42
-65 -137 -65 l-83 0 0 106 0 106 84 -3 c72 -3 88 -7 110 -28z"/>
<path d="M22920 2535 l0 -375 80 0 80 0 0 375 0 375 -80 0 -80 0 0 -375z"/>
<path d="M23547 2542 c-75 -203 -137 -372 -137 -375 0 -4 38 -7 84 -7 l83 0
30 83 30 82 134 0 134 0 30 -82 30 -83 84 0 c75 0 83 2 78 18 -2 9 -64 176
-136 371 -72 194 -131 355 -131 357 0 2 -39 4 -88 4 l-88 0 -137 -368z m266
51 c19 -62 32 -114 29 -117 -8 -9 -142 -7 -142 2 -1 22 66 240 71 234 4 -4 23
-57 42 -119z"/>
<path d="M12779 1741 c-91 -18 -172 -98 -186 -183 l-5 -34 67 -10 66 -10 14
32 c26 63 97 84 149 43 27 -21 34 -56 17 -88 -5 -9 -80 -100 -165 -201 -140
-167 -156 -189 -156 -222 l0 -38 230 0 230 0 0 70 0 69 -104 3 -105 3 90 100
c114 126 143 183 137 270 -3 46 -11 73 -29 101 -46 70 -160 113 -250 95z"/>
<path d="M13630 1739 c-130 -26 -200 -150 -200 -356 0 -196 53 -310 165 -353
49 -19 155 -15 205 7 105 46 150 150 150 343 0 129 -19 213 -62 275 -46 68
-158 104 -258 84z m120 -167 c37 -37 50 -88 50 -192 0 -47 -5 -103 -11 -124
-13 -47 -59 -96 -89 -96 -37 0 -77 28 -96 67 -27 55 -27 251 0 306 34 68 99
86 146 39z"/>
<path d="M14507 1739 c-51 -12 -87 -32 -119 -66 -32 -33 -72 -119 -65 -137 3
-8 27 -17 54 -20 26 -4 55 -9 63 -12 11 -3 20 7 29 31 14 39 54 65 98 65 32
-1 55 -15 72 -48 18 -34 -3 -67 -171 -266 -138 -163 -148 -178 -148 -215 l0
-41 230 0 230 0 0 70 0 69 -107 3 -106 3 93 105 c128 145 155 212 126 312 -32
110 -159 177 -279 147z"/>
<path d="M17777 1739 c-55 -13 -90 -34 -124 -72 -33 -38 -70 -123 -59 -135 4
-4 35 -12 67 -18 l60 -11 19 37 c20 39 55 60 98 60 51 -1 89 -50 72 -94 -5
-14 -79 -109 -165 -210 -144 -172 -155 -188 -155 -226 l0 -40 230 0 230 0 0
70 0 69 -107 3 -108 3 46 50 c170 185 202 250 179 352 -20 93 -94 154 -200
167 -25 2 -62 1 -83 -5z"/>
<path d="M18640 1741 c-115 -24 -180 -111 -201 -271 -14 -100 0 -236 31 -308
42 -96 118 -145 231 -145 162 0 242 100 256 319 9 148 -25 290 -85 347 -50 48
-155 74 -232 58z m100 -156 c44 -23 65 -90 65 -205 0 -115 -21 -182 -65 -205
-41 -21 -64 -19 -98 10 -39 32 -57 99 -55 202 2 107 16 156 54 187 35 30 58
32 99 11z"/>
<path d="M19515 1741 c-91 -23 -141 -69 -176 -161 -22 -57 -25 -54 63 -68 57
-9 57 -9 69 20 27 65 101 88 153 47 38 -30 34 -67 -12 -126 -22 -26 -96 -115
-165 -198 -113 -134 -127 -154 -127 -187 l0 -38 230 0 230 0 0 70 0 69 -104 3
-105 3 90 100 c116 130 143 183 137 269 -3 50 -10 73 -32 105 -47 67 -170 113
-251 92z"/>
<path d="M15273 1675 l-133 -64 0 -65 c0 -36 2 -66 4 -66 2 0 29 11 60 25 l56
25 0 -250 0 -250 75 0 75 0 0 355 c0 195 -1 355 -2 354 -2 0 -63 -29 -135 -64z"/>
<path d="M20150 1660 l0 -69 148 -3 149 -3 -119 -269 c-65 -148 -118 -273
-118 -278 0 -4 37 -8 83 -8 l83 0 148 337 c81 185 150 342 153 350 4 11 -43
13 -261 13 l-266 0 0 -70z"/>
<path d="M16330 1290 l0 -60 190 0 190 0 0 60 0 60 -190 0 -190 0 0 -60z"/>
</g>
</svg>
